REM MD5 06c2712c18c05f5235a292d1df6c4aae
FILE "Simple 1500 Jitsuyou Series Vol. 03 - Seimei Handan (Japan).bin" BINARY
  TRACK 01 MODE2/2352
    INDEX 01 00:00:00
  TRACK 02 AUDIO
    INDEX 00 00:28:04
    INDEX 01 00:30:04
  TRACK 03 AUDIO
    INDEX 00 04:32:56
    INDEX 01 04:34:56
REM LEADOUT 08:28:50
